# xmcd
#
# Track frame offsets:
#	182
#	20867
#	42297
#	58010
#	79897
#	97255
#	123857
#	143487
#
# Disc length: 2205 seconds
#
# Revision: 0
# Processed by: cddbd v1.4PL0 Copyright (c) Steve Scherf et al.
# Submitted via: dBpowerAMP V4.0
#
DISCID=6b089b08
DTITLE=Deraime Bill - Plus la peine de frimer
DYEAR=1980
DGENRE=Blues
TTITLE0=Hélène
TTITLE1=Plus la peine de frimer
TTITLE2=Géraldine
TTITLE3=Faut que j'me tire ailleurs
TTITLE4=Le chanteur maudit
TTITLE5=Je m'sentais mal
TTITLE6=T'as just' envie d'autre chose
TTITLE7=Un dernier blues
EXTD=
EXTT0=
EXTT1=
EXTT2=
EXTT3=
EXTT4=
EXTT5=
EXTT6=
EXTT7=
PLAYORDER=
